<svg id="Layer_1" data-name="Layer 1" xmlns="http://www.w3.org/2000/svg" viewBox="0 0 409.45 125.32"><defs><style>.cls-1{fill:#f32735;}.cls-2{fill:#fff;}.cls-3{fill:#a0ce66;}.cls-3,.cls-5{fill-rule:evenodd;}.cls-4{fill:#fecf0c;}.cls-5,.cls-6{fill:#414042;}</style></defs><rect class="cls-1" x="25.06" y="25.06" width="75.19" height="75.19" rx="6.85"/><path class="cls-2" d="M40.81,62a26.69,26.69,0,0,1,53.36,0H92.85a20.57,20.57,0,0,0-41.14,0ZM28.42,62A34.25,34.25,0,0,1,96.9,62H95.5a28.06,28.06,0,0,0-56.1,0ZM53.1,62a19.2,19.2,0,0,1,38.39,0H90.07c0-.16,0-.32,0-.48a13.72,13.72,0,0,0-27.43,0V62Zm19.12,1.39a19.19,19.19,0,0,1-38.38,0h1.41c0,.15,0,.31,0,.47a13.72,13.72,0,0,0,27.44,0c0-.16,0-.32,0-.47Zm24.68,0a34.25,34.25,0,0,1-68.48,0h1.41a28.06,28.06,0,0,0,56.09,0Zm-12.39,0a26.69,26.69,0,0,1-53.35,0h1.32a20.57,20.57,0,0,0,41.13,0Z"/><path class="cls-3" d="M366.59,73.94H360c1.54-3.07,5.78-12.19,2.94-10.74-16.94,8.71-22-14,3.61-30.62,25.64,16.62,20.59,39.33,3.65,30.62-2.84-1.45,1.4,7.67,2.94,10.74Z"/><path class="cls-4" d="M369.86,61c4.86,2.6,13.36,4.66,12.9-4.28-.31-6-5.45-15-16.17-22.31-10.68,7.26-15.81,16.29-16.12,22.31-.46,8.93,8,6.89,12.89,4.28l3.23,2.69Z"/><path class="cls-3" d="M366.59,61.75l3.29-2.8c15.18,10,16.48-9.07-3.29-23-19.73,13.91-18.43,33-3.25,23Z"/><path class="cls-4" d="M367.26,55.24V52.18c0-1.38,2.52-.89,3.28.4A20,20,0,0,0,373.7,57a2.4,2.4,0,0,0,1.92.59c1.92,0,3.42-2.7,1.64-2.08-3,1.08-3.8-2-4.84-3.84-.82-1.5-1.59-2.42-3.44-2.64l3.1-5h-2.19l-2.63,4.06V44h-2.43V55.24Z"/><rect class="cls-4" x="360.59" y="44.02" width="2.24" height="11.22"/><path class="cls-5" d="M114.66,94.08a4.59,4.59,0,0,0,.8,3,2.42,2.42,0,0,0,2,1,2.29,2.29,0,0,0,1.83-.89,4.58,4.58,0,0,0,.73-2.92,4.36,4.36,0,0,0-.75-2.8,2.31,2.31,0,0,0-1.87-.92,2.44,2.44,0,0,0-1.93.9A4,4,0,0,0,114.66,94.08Zm-3.12-5.81h3V90a4.39,4.39,0,0,1,3.73-2,4.57,4.57,0,0,1,3.54,1.64,6.67,6.67,0,0,1,1.46,4.57,6.83,6.83,0,0,1-1.47,4.67,4.57,4.57,0,0,1-3.55,1.67,4,4,0,0,1-1.81-.4,6.17,6.17,0,0,1-1.7-1.35v6h-3.16Z"/><path class="cls-5" d="M132.53,100.26v-1.8A4.83,4.83,0,0,1,130.8,100a4.7,4.7,0,0,1-2.25.57,4.44,4.44,0,0,1-2.17-.53,3.17,3.17,0,0,1-1.4-1.5,6.79,6.79,0,0,1-.43-2.66v-7.6h3.17v5.52a14.84,14.84,0,0,0,.18,3.1,1.66,1.66,0,0,0,.64.91,2,2,0,0,0,1.17.33,2.54,2.54,0,0,0,1.46-.44,2.32,2.32,0,0,0,.89-1.11,12.91,12.91,0,0,0,.23-3.24V88.27h3.17v12Z"/><rect class="cls-6" x="137.57" y="83.72" width="3.17" height="16.54"/><path class="cls-5" d="M145.85,94.08a4.59,4.59,0,0,0,.8,3,2.42,2.42,0,0,0,1.95,1,2.29,2.29,0,0,0,1.83-.89,4.58,4.58,0,0,0,.73-2.92,4.36,4.36,0,0,0-.75-2.8,2.32,2.32,0,0,0-1.87-.92,2.44,2.44,0,0,0-1.93.9A4,4,0,0,0,145.85,94.08Zm-3.12-5.81h3V90a4.39,4.39,0,0,1,3.73-2A4.57,4.57,0,0,1,153,89.65a6.67,6.67,0,0,1,1.46,4.57A6.83,6.83,0,0,1,153,98.89a4.57,4.57,0,0,1-3.55,1.67,4,4,0,0,1-1.81-.4,6.17,6.17,0,0,1-1.7-1.35v6h-3.16Z"/><path class="cls-5" d="M167.65,94.53a19.69,19.69,0,0,1-1.93.48,5.76,5.76,0,0,0-1.72.56,1.29,1.29,0,0,0-.62,1.11,1.54,1.54,0,0,0,.49,1.15,1.7,1.7,0,0,0,1.26.49,2.72,2.72,0,0,0,1.64-.57,2,2,0,0,0,.76-1,6.56,6.56,0,0,0,.12-1.55ZM163.4,92l-2.87-.5a4.56,4.56,0,0,1,1.67-2.6,6.09,6.09,0,0,1,3.52-.85,7.46,7.46,0,0,1,3.16.51,3.17,3.17,0,0,1,1.47,1.27,6.57,6.57,0,0,1,.42,2.84l-.05,3.69a13,13,0,0,0,.15,2.33,6.65,6.65,0,0,0,.57,1.61H168.3a9,9,0,0,1-.31-.93c-.05-.18-.09-.31-.11-.37a5.69,5.69,0,0,1-1.73,1.2,4.85,4.85,0,0,1-2,.4,4.07,4.07,0,0,1-2.91-1A3.31,3.31,0,0,1,160.21,97a3.42,3.42,0,0,1,.48-1.81A3.22,3.22,0,0,1,162.05,94a10.9,10.9,0,0,1,2.52-.74,17.46,17.46,0,0,0,3.08-.78v-.32a1.7,1.7,0,0,0-.45-1.32,2.71,2.71,0,0,0-1.71-.39,2.2,2.2,0,0,0-1.32.34A2.27,2.27,0,0,0,163.4,92Z"/><path class="cls-5" d="M183.66,100.26h-3.17V94.15a9.77,9.77,0,0,0-.2-2.51,1.76,1.76,0,0,0-.67-.88,1.93,1.93,0,0,0-1.11-.32,2.59,2.59,0,0,0-1.49.45,2.31,2.31,0,0,0-.91,1.2,10.38,10.38,0,0,0-.24,2.75v5.42H172.7v-12h2.94V90a5,5,0,0,1,5.9-1.64,3.25,3.25,0,0,1,1.32,1,3.62,3.62,0,0,1,.62,1.33,9.54,9.54,0,0,1,.18,2.13Z"/><path class="cls-5" d="M188.26,94a5.61,5.61,0,0,0,.53,2.79,2.38,2.38,0,0,0,2.14,1.24,2.33,2.33,0,0,0,1.86-.93,4.32,4.32,0,0,0,.76-2.79,4.78,4.78,0,0,0-.74-3,2.34,2.34,0,0,0-1.9-.91,2.39,2.39,0,0,0-1.89.9A4.07,4.07,0,0,0,188.26,94Zm8.46,6.23h-2.94V98.5a4.94,4.94,0,0,1-1.73,1.54,4.31,4.31,0,0,1-2,.52,4.59,4.59,0,0,1-3.55-1.67A6.79,6.79,0,0,1,185,94.24a6.7,6.7,0,0,1,1.44-4.64A4.69,4.69,0,0,1,190.07,88a4.51,4.51,0,0,1,3.48,1.67v-6h3.17Z"/><path class="cls-5" d="M203.81,88.28h3V90a4.47,4.47,0,0,1,1.55-1.47A4.27,4.27,0,0,1,210.5,88,4.56,4.56,0,0,1,214,89.64a6.63,6.63,0,0,1,1.46,4.56A6.83,6.83,0,0,1,214,98.87a4.56,4.56,0,0,1-3.55,1.66,4.14,4.14,0,0,1-1.81-.39A6.25,6.25,0,0,1,207,98.78v6h-3.17ZM207,94.07a4.62,4.62,0,0,0,.8,3,2.43,2.43,0,0,0,1.95,1,2.29,2.29,0,0,0,1.84-.88,4.57,4.57,0,0,0,.73-2.91,4.37,4.37,0,0,0-.75-2.8,2.38,2.38,0,0,0-1.88-.91,2.44,2.44,0,0,0-1.93.9A4,4,0,0,0,207,94.07Zm12.28-2.14-2.88-.52A4.51,4.51,0,0,1,218,88.84a6.1,6.1,0,0,1,3.52-.83,7.49,7.49,0,0,1,3.16.5,3.1,3.1,0,0,1,1.46,1.28,6.48,6.48,0,0,1,.43,2.83l0,3.7a13.2,13.2,0,0,0,.15,2.34,7.21,7.21,0,0,0,.57,1.6h-3.13a8.55,8.55,0,0,1-.31-.94l-.11-.37a5.75,5.75,0,0,1-1.74,1.19,5,5,0,0,1-2,.39,4.08,4.08,0,0,1-2.92-1A3.35,3.35,0,0,1,216,97a3.43,3.43,0,0,1,.49-1.81A3.13,3.13,0,0,1,217.86,94a10.85,10.85,0,0,1,2.53-.74,17.46,17.46,0,0,0,3.08-.78v-.32a1.6,1.6,0,0,0-.45-1.29,2.62,2.62,0,0,0-1.7-.4,2.18,2.18,0,0,0-1.32.34A2.25,2.25,0,0,0,219.23,91.93Zm4.24,2.58c-.4.13-1.05.29-1.93.48a5.84,5.84,0,0,0-1.72.55,1.32,1.32,0,0,0-.62,1.12,1.55,1.55,0,0,0,.49,1.15,1.71,1.71,0,0,0,1.27.49,2.72,2.72,0,0,0,1.63-.57,1.92,1.92,0,0,0,.76-1,6.4,6.4,0,0,0,.12-1.54Zm5-6.23h2.95V90A4.59,4.59,0,0,1,233,88.57a4.24,4.24,0,0,1,2.18-.56,4.56,4.56,0,0,1,3.54,1.63,6.63,6.63,0,0,1,1.46,4.56,6.83,6.83,0,0,1-1.47,4.67,4.56,4.56,0,0,1-3.55,1.66,4.11,4.11,0,0,1-1.81-.39,6.25,6.25,0,0,1-1.69-1.36v6h-3.17Zm3.13,5.79a4.68,4.68,0,0,0,.8,3,2.46,2.46,0,0,0,2,1,2.3,2.3,0,0,0,1.84-.88,4.63,4.63,0,0,0,.73-2.91,4.31,4.31,0,0,0-.76-2.8,2.36,2.36,0,0,0-1.87-.91,2.42,2.42,0,0,0-1.93.9A4,4,0,0,0,231.6,94.07Zm16.86,2.38,3.16.53a5.22,5.22,0,0,1-1.93,2.65,5.69,5.69,0,0,1-3.29.9,5.36,5.36,0,0,1-4.62-2,6.87,6.87,0,0,1-1.19-4.13,6.58,6.58,0,0,1,1.56-4.66A5.12,5.12,0,0,1,246.09,88a5.32,5.32,0,0,1,4.22,1.77q1.55,1.75,1.48,5.4h-7.95a3.2,3.2,0,0,0,.77,2.2,2.41,2.41,0,0,0,1.83.78,2,2,0,0,0,1.25-.4A2.6,2.6,0,0,0,248.46,96.45Zm.18-3.21a3.09,3.09,0,0,0-.71-2.09,2.18,2.18,0,0,0-1.65-.72,2.21,2.21,0,0,0-1.72.76,2.91,2.91,0,0,0-.66,2Zm7.61,7h-3.17v-12H256V90a5.35,5.35,0,0,1,1.36-1.59,2.46,2.46,0,0,1,1.37-.38,4.09,4.09,0,0,1,2.09.59l-1,2.77a2.74,2.74,0,0,0-1.49-.52,1.75,1.75,0,0,0-1.13.37,2.48,2.48,0,0,0-.73,1.32,19.47,19.47,0,0,0-.26,4Zm10-12h2.95V90a4.59,4.59,0,0,1,1.56-1.47,4.24,4.24,0,0,1,2.18-.56,4.56,4.56,0,0,1,3.54,1.63,6.63,6.63,0,0,1,1.46,4.56,6.83,6.83,0,0,1-1.47,4.67,4.56,4.56,0,0,1-3.55,1.66,4.11,4.11,0,0,1-1.81-.39,6.25,6.25,0,0,1-1.69-1.36v6h-3.17Zm3.13,5.79a4.68,4.68,0,0,0,.8,3,2.46,2.46,0,0,0,2,1,2.3,2.3,0,0,0,1.84-.88,4.63,4.63,0,0,0,.73-2.91,4.31,4.31,0,0,0-.76-2.8,2.34,2.34,0,0,0-1.87-.91,2.44,2.44,0,0,0-1.93.9A4,4,0,0,0,269.36,94.07Zm12.95,6.19h-3.17v-12h2.95V90a5.21,5.21,0,0,1,1.35-1.59,2.52,2.52,0,0,1,1.38-.38,4.11,4.11,0,0,1,2.09.59l-1,2.77a2.74,2.74,0,0,0-1.49-.52,1.7,1.7,0,0,0-1.12.37,2.48,2.48,0,0,0-.74,1.32,19.47,19.47,0,0,0-.26,4Zm4.07-6.16a6.5,6.5,0,0,1,.78-3.06,5.39,5.39,0,0,1,2.2-2.26,6.69,6.69,0,0,1,3.19-.77A6,6,0,0,1,297,89.78a6.07,6.07,0,0,1,1.74,4.45A6.21,6.21,0,0,1,297,98.75a5.92,5.92,0,0,1-4.41,1.78,7.08,7.08,0,0,1-3.15-.74,5.2,5.2,0,0,1-2.27-2.18A7.28,7.28,0,0,1,286.38,94.1Zm3.25.17a3.93,3.93,0,0,0,.85,2.73,2.75,2.75,0,0,0,4.16,0,4,4,0,0,0,.85-2.75,3.9,3.9,0,0,0-.85-2.71,2.75,2.75,0,0,0-4.16,0A3.93,3.93,0,0,0,289.63,94.27Zm21.44,6h-2.95V98.5a4.76,4.76,0,0,1-1.74,1.53,4.32,4.32,0,0,1-2,.5,4.59,4.59,0,0,1-3.55-1.66,6.79,6.79,0,0,1-1.47-4.65,6.63,6.63,0,0,1,1.44-4.62A4.65,4.65,0,0,1,304.42,88a4.48,4.48,0,0,1,3.48,1.67v-6h3.17ZM302.6,94a5.49,5.49,0,0,0,.53,2.77A2.42,2.42,0,0,0,305.28,98a2.33,2.33,0,0,0,1.86-.93,4.32,4.32,0,0,0,.77-2.79,4.64,4.64,0,0,0-.75-3,2.34,2.34,0,0,0-1.9-.92,2.39,2.39,0,0,0-1.9.9A4.1,4.1,0,0,0,302.6,94Zm18.32,6.25V98.47A4.58,4.58,0,0,1,319.2,100a4.8,4.8,0,0,1-2.25.55,4.4,4.4,0,0,1-2.16-.53,3.09,3.09,0,0,1-1.39-1.49,6.56,6.56,0,0,1-.43-2.65V88.28h3.17v5.5a16.2,16.2,0,0,0,.17,3.11,1.77,1.77,0,0,0,.64.9,2,2,0,0,0,1.18.33,2.53,2.53,0,0,0,1.45-.44,2.29,2.29,0,0,0,.88-1.11,12.72,12.72,0,0,0,.24-3.24v-5h3.17v12Zm15.53-8.44-3.13.56A2.28,2.28,0,0,0,332.6,91a2.18,2.18,0,0,0-1.45-.47,2.36,2.36,0,0,0-1.89.82,4.18,4.18,0,0,0-.7,2.73,4.92,4.92,0,0,0,.71,3,2.38,2.38,0,0,0,1.93.88,2.16,2.16,0,0,0,1.48-.51,3.18,3.18,0,0,0,.81-1.77l3.11.53a5.5,5.5,0,0,1-1.86,3.24,5.77,5.77,0,0,1-3.69,1.09,5.51,5.51,0,0,1-4.2-1.66,7.58,7.58,0,0,1,0-9.21A5.57,5.57,0,0,1,331.11,88a5.71,5.71,0,0,1,3.47.94A5.2,5.2,0,0,1,336.45,91.82Zm6.74-3.54V90.8H341v4.83a12.7,12.7,0,0,0,.06,1.72.68.68,0,0,0,.28.39.89.89,0,0,0,.54.16,4.16,4.16,0,0,0,1.28-.3l.27,2.46a6.42,6.42,0,0,1-2.51.47,4,4,0,0,1-1.54-.28,2.35,2.35,0,0,1-1-.75,3,3,0,0,1-.44-1.24,15.06,15.06,0,0,1-.1-2.23V90.8h-1.45V88.28h1.45V85.9L341,84v4.24Zm-.07,8.56,3.18-.48a2.38,2.38,0,0,0,.82,1.41,2.88,2.88,0,0,0,1.74.47,3.13,3.13,0,0,0,1.85-.45,1,1,0,0,0,.42-.85.85.85,0,0,0-.23-.6,2.52,2.52,0,0,0-1.06-.41A17,17,0,0,1,345,94.38a3.08,3.08,0,0,1-1.42-2.7,3.31,3.31,0,0,1,1.23-2.61A5.72,5.72,0,0,1,348.6,88a6.62,6.62,0,0,1,3.66.8,4.09,4.09,0,0,1,1.64,2.37l-3,.55a1.79,1.79,0,0,0-.73-1.07,2.6,2.6,0,0,0-1.52-.38,3.49,3.49,0,0,0-1.8.35.76.76,0,0,0-.36.65.69.69,0,0,0,.32.57,11.66,11.66,0,0,0,2.95.89,8.85,8.85,0,0,1,3.55,1.42,2.92,2.92,0,0,1,1,2.35,3.63,3.63,0,0,1-1.38,2.84,6.06,6.06,0,0,1-4.07,1.18,6.71,6.71,0,0,1-3.88-1A4.55,4.55,0,0,1,343.12,96.84Z"/><rect class="cls-6" x="111.54" y="32.58" width="7.93" height="7.34"/><rect class="cls-6" x="111.54" y="43.98" width="7.93" height="29.96"/><path class="cls-6" d="M152,73.94H144V58.65a23.35,23.35,0,0,0-.51-6.26,4.39,4.39,0,0,0-1.66-2.23,4.66,4.66,0,0,0-2.74-.79,6.39,6.39,0,0,0-3.7,1.13,5.73,5.73,0,0,0-2.25,3,26.12,26.12,0,0,0-.6,6.88V73.94h-7.92V44H132v4.4a12.27,12.27,0,0,1,14.67-4.12,7.76,7.76,0,0,1,3.27,2.4A8.49,8.49,0,0,1,151.5,50a23.37,23.37,0,0,1,.46,5.33Z"/><path class="cls-6" d="M184.59,73.94h-7.37v-4.4a12,12,0,0,1-4.34,3.84,11.11,11.11,0,0,1-5,1.24A11.44,11.44,0,0,1,159,70.47q-3.67-4.17-3.67-11.62,0-7.62,3.58-11.57a11.67,11.67,0,0,1,9.06-4,11.23,11.23,0,0,1,8.69,4.17V32.58h7.93ZM163.43,58.31c0,3.2.44,5.52,1.32,6.94a6,6,0,0,0,5.36,3.11A5.83,5.83,0,0,0,174.77,66q1.92-2.34,1.92-7,0-5.17-1.87-7.42a5.86,5.86,0,0,0-4.76-2.29,6,6,0,0,0-4.74,2.26Q163.43,53.85,163.43,58.31Z"/><path class="cls-6" d="M195.44,53.12l-7.2-1.29a11.19,11.19,0,0,1,4.18-6.44c2-1.39,4.91-2.08,8.8-2.08q5.31,0,7.9,1.26a7.72,7.72,0,0,1,3.64,3.19q1.06,1.92,1.07,7.08l-.08,9.26a34.24,34.24,0,0,0,.36,5.84,18.22,18.22,0,0,0,1.44,4h-7.84c-.21-.52-.46-1.3-.76-2.34-.14-.47-.23-.78-.28-.93a14.19,14.19,0,0,1-4.35,3,12.42,12.42,0,0,1-4.94,1,10.26,10.26,0,0,1-7.3-2.51,8.92,8.92,0,0,1-1.44-10.86,7.81,7.81,0,0,1,3.38-3,26.86,26.86,0,0,1,6.32-1.86,43.51,43.51,0,0,0,7.7-2V53.6a4.06,4.06,0,0,0-1.12-3.24q-1.14-1-4.26-1a4.8,4.8,0,0,0-5.22,3.75ZM206,59.56c-1,.33-2.62.74-4.82,1.21a14.66,14.66,0,0,0-4.32,1.38,3.32,3.32,0,0,0-1.55,2.79,3.92,3.92,0,0,0,1.24,2.88A4.33,4.33,0,0,0,199.75,69a6.87,6.87,0,0,0,4.09-1.41A4.91,4.91,0,0,0,205.73,65a15.47,15.47,0,0,0,.31-3.86Z"/><path class="cls-6" d="M226.66,32.58V47.79a11.9,11.9,0,0,1,14.1-3.47,7.89,7.89,0,0,1,3.3,2.6,9.11,9.11,0,0,1,1.53,3.49,30.57,30.57,0,0,1,.42,6V73.94h-7.93V58.12a23.47,23.47,0,0,0-.45-6,3.85,3.85,0,0,0-1.61-2,5,5,0,0,0-2.85-.76,6.55,6.55,0,0,0-3.52,1,5.59,5.59,0,0,0-2.29,2.91,17.43,17.43,0,0,0-.7,5.69v15h-7.93V32.58Z"/><path class="cls-6" d="M343,44V50.3h-5.41V62.38a32.17,32.17,0,0,0,.14,4.28,1.82,1.82,0,0,0,.7,1,2.28,2.28,0,0,0,1.36.4,10.56,10.56,0,0,0,3.19-.76l.67,6.15a15.74,15.74,0,0,1-6.26,1.18,10.15,10.15,0,0,1-3.87-.7A5.83,5.83,0,0,1,331,72.05a7.56,7.56,0,0,1-1.11-3.1,40.06,40.06,0,0,1-.25-5.59V50.3H326V44h3.64V38l8-4.63V44Z"/><polygon class="cls-6" points="257.29 73.94 257.29 32.59 265.22 32.59 265.22 54.53 274.5 43.98 284.26 43.98 274.02 54.93 284.99 73.94 276.44 73.94 268.91 60.49 265.22 64.35 265.22 73.94 257.29 73.94"/><rect class="cls-6" x="286.82" y="32.58" width="7.93" height="7.34"/><rect class="cls-6" x="286.82" y="43.98" width="7.93" height="29.96"/><path class="cls-6" d="M305.9,53.12l-7.19-1.29a11.19,11.19,0,0,1,4.18-6.44q3-2.09,8.8-2.08c3.53,0,6.17.42,7.9,1.26a7.72,7.72,0,0,1,3.64,3.19q1.06,1.92,1.07,7.08l-.09,9.26a34,34,0,0,0,.37,5.84,17.24,17.24,0,0,0,1.44,4h-7.84c-.21-.52-.46-1.3-.77-2.34-.13-.47-.22-.78-.28-.93a14,14,0,0,1-4.34,3,12.42,12.42,0,0,1-4.94,1,10.3,10.3,0,0,1-7.31-2.51,8.39,8.39,0,0,1-2.65-6.35,8.53,8.53,0,0,1,1.21-4.51,7.84,7.84,0,0,1,3.39-3,26.71,26.71,0,0,1,6.32-1.86,43.76,43.76,0,0,0,7.7-2V53.6a4,4,0,0,0-1.13-3.24q-1.12-1-4.26-1a5.56,5.56,0,0,0-3.3.85A5.67,5.67,0,0,0,305.9,53.12Zm10.61,6.44c-1,.33-2.62.74-4.82,1.21a14.66,14.66,0,0,0-4.32,1.38,3.32,3.32,0,0,0-1.55,2.79,3.88,3.88,0,0,0,1.24,2.88A4.33,4.33,0,0,0,310.22,69a6.87,6.87,0,0,0,4.09-1.41A4.91,4.91,0,0,0,316.2,65a15.47,15.47,0,0,0,.31-3.86Z"/></svg>